<?xml version="1.0" encoding="UTF-8" standalone="no"?>
<!-- Created with Inkscape (http://www.inkscape.org/) -->

<svg
   width="938mm"
   height="253mm"
   viewBox="0 0 938 253"
   version="1.1"
   id="svg22470"
   inkscape:version="1.1 (c4e8f9e, 2021-05-24)"
   sodipodi:docname="banner_islesboro_energy_committee.svg"
   inkscape:export-filename="/Users/cressica/lighthouse_color.png"
   inkscape:export-xdpi="97.466576"
   inkscape:export-ydpi="97.466576"
   xmlns:inkscape="http://www.inkscape.org/namespaces/inkscape"
   xmlns:sodipodi="http://sodipodi.sourceforge.net/DTD/sodipodi-0.dtd"
   xmlns="http://www.w3.org/2000/svg"
   xmlns:svg="http://www.w3.org/2000/svg">
  <sodipodi:namedview
     id="namedview22472"
     pagecolor="#ffffff"
     bordercolor="#666666"
     borderopacity="1.0"
     inkscape:pageshadow="2"
     inkscape:pageopacity="0.0"
     inkscape:pagecheckerboard="0"
     inkscape:document-units="mm"
     showgrid="false"
     fit-margin-top="5"
     lock-margins="true"
     fit-margin-left="5"
     fit-margin-right="5"
     fit-margin-bottom="5"
     inkscape:zoom="0.13140081"
     inkscape:cx="2142.3003"
     inkscape:cy="2070.0024"
     inkscape:window-width="1312"
     inkscape:window-height="812"
     inkscape:window-x="0"
     inkscape:window-y="0"
     inkscape:window-maximized="0"
     inkscape:current-layer="layer5" />
  <defs
     id="defs22467" />
  <g
     inkscape:groupmode="layer"
     id="layer5"
     inkscape:label="Layer 2"
     style="display:inline">
    <g
       id="g5492"
       transform="matrix(1.6718752,0,0,1.6718752,20.252263,27.275723)">
      <path
         id="path985-4"
         style="display:inline;fill:#ffd402;fill-opacity:1;stroke:none;stroke-width:0.231139px;stroke-linecap:butt;stroke-linejoin:miter;stroke-opacity:1"
         inkscape:transform-center-x="36.20846"
         inkscape:transform-center-y="8.9050922"
         d="m 14.903418,24.103779 a 60.631247,60.631247 0 0 0 -0.231511,0.2837 60.631247,60.631247 0 0 0 -1.817978,2.47582 60.631247,60.631247 0 0 0 -1.690852,2.56522 60.631247,60.631247 0 0 0 -1.558044,2.64686 60.631247,60.631247 0 0 0 -1.422654,2.72284 60.631247,60.631247 0 0 0 -1.282091,2.79156 60.631247,60.631247 0 0 0 -0.226859,0.5674 l 55.270526,-13.63947 z" />
      <path
         id="path982-1"
         style="display:inline;fill:#ffd402;fill-opacity:1;stroke:none;stroke-width:0.231139px;stroke-linecap:butt;stroke-linejoin:miter;stroke-opacity:1"
         inkscape:transform-center-x="34.329005"
         inkscape:transform-center-y="-9.2189499"
         d="m 29.665824,10.648269 a 60.631247,60.631247 0 0 0 -1.203029,0.75602 60.631247,60.631247 0 0 0 -3.648356,2.69235 60.631247,60.631247 0 0 0 -3.436482,2.95744 60.631247,60.631247 0 0 0 -3.206006,3.20652 60.631247,60.631247 0 0 0 -0.782381,0.90899 l 44.567305,3.35277 z" />
      <path
         id="path976-3"
         style="display:inline;fill:#ffd402;fill-opacity:1;stroke:none;stroke-width:0.231139px;stroke-linecap:butt;stroke-linejoin:miter;stroke-opacity:1"
         inkscape:transform-center-x="-36.208459"
         inkscape:transform-center-y="8.9050922"
         d="m 118.72705,38.524089 a 60.631247,60.631247 0 0 0 -0.39171,-0.93431 60.631247,60.631247 0 0 0 -0.41186,-0.93741 60.631247,60.631247 0 0 0 -0.42737,-0.9307 60.631247,60.631247 0 0 0 -0.44338,-0.92345 60.631247,60.631247 0 0 0 -0.45889,-0.91519 60.631247,60.631247 0 0 0 -0.47387,-0.90796 60.631247,60.631247 0 0 0 -0.48937,-0.89969 60.631247,60.631247 0 0 0 -0.50488,-0.8909 60.631247,60.631247 0 0 0 -0.51935,-0.88263 60.631247,60.631247 0 0 0 -0.53434,-0.87333 60.631247,60.631247 0 0 0 -0.5488,-0.86455 60.631247,60.631247 0 0 0 -0.56379,-0.85524 60.631247,60.631247 0 0 0 -0.57774,-0.84543 60.631247,60.631247 0 0 0 -0.59221,-0.83561 60.631247,60.631247 0 0 0 -0.60617,-0.82527 60.631247,60.631247 0 0 0 -0.62012,-0.81494 60.631247,60.631247 0 0 0 -0.23254,-0.29559 l -48.360345,0.42582 z" />
      <path
         id="path979-2"
         style="display:inline;fill:#ffd402;fill-opacity:1;stroke:none;stroke-width:0.231139px;stroke-linecap:butt;stroke-linejoin:miter;stroke-opacity:1"
         inkscape:transform-center-x="-34.329006"
         inkscape:transform-center-y="-9.2189499"
         d="m 107.79852,21.073989 a 60.631247,60.631247 0 0 0 -0.68472,-0.75913 60.631247,60.631247 0 0 0 -1.07487,-1.13223 60.631247,60.631247 0 0 0 -1.10432,-1.10381 60.631247,60.631247 0 0 0 -1.13172,-1.07538 60.631247,60.631247 0 0 0 -1.15962,-1.04542 60.631247,60.631247 0 0 0 -1.18545,-1.01544 60.631247,60.631247 0 0 0 -1.21182,-0.98444 60.631247,60.631247 0 0 0 -1.236605,-0.95343 60.631247,60.631247 0 0 0 -1.26091,-0.92087 60.631247,60.631247 0 0 0 -1.28364,-0.88832 60.631247,60.631247 0 0 0 -1.3069,-0.85473 60.631247,60.631247 0 0 0 -0.0796,-0.0491 l -33.12149,14.23066 z" />
      <path
         id="path48275-5"
         style="display:inline;fill:#046ca5;fill-opacity:1;stroke:none;stroke-width:1.66206;stroke-linecap:round;stroke-linejoin:round;stroke-opacity:1;paint-order:stroke fill markers"
         d="M 118.64771,84.668579 A 60.631247,60.631247 0 0 1 62.617645,122.13132 60.631247,60.631247 0 0 1 6.587513,84.668429" />
      <path
         id="path50597-1"
         style="display:inline;fill:#147f32;fill-opacity:1;stroke:#feffff;stroke-width:1.662;stroke-linecap:round;stroke-linejoin:round;stroke-miterlimit:4;stroke-dasharray:none;stroke-opacity:1;paint-order:stroke fill markers"
         d="m 119.63965,81.987579 c -1.53878,0.10052 -3.10957,0.20377 -4.92889,0.33228 -2.31049,0.16321 -4.83181,0.3494 -7.52513,0.56017 -2.6933,0.21077 -5.55888,0.44642 -8.557095,0.70746 -1.49911,0.13051 -3.03124,0.26723 -4.59197,0.41082 -1.56072,0.14359 -3.14989,0.29362 -4.7625,0.45062 -1.6126,0.157 -3.24883,0.32121 -4.90357,0.49196 -1.65475,0.17075 -3.32806,0.34846 -5.0152,0.5333 -1.68714,0.18484 -3.38808,0.37641 -5.09788,0.57568 -1.7098,0.19926 -3.42838,0.40609 -5.15111,0.62011 -1.72272,0.21403 -3.44949,0.43544 -5.17539,0.66456 -1.7259,0.22913 -3.45089,0.46599 -5.17023,0.71056 -1.71934,0.24456 -3.433075,0.49671 -5.136119,0.75705 -1.70304,0.26035 -3.395554,0.52866 -5.072557,0.80512 -1.677003,0.27646 -3.338316,0.5613 -4.979543,0.85421 -1.641223,0.29292 -3.262394,0.59412 -4.858099,0.90382 -0.797854,0.15486 -1.589368,0.31166 -2.374016,0.47078 -0.784649,0.15911 -1.562449,0.32027 -2.332675,0.48369 -0.770224,0.16341 -1.532615,0.32936 -2.287199,0.49713 -0.754584,0.16776 -1.501412,0.33738 -2.239139,0.50952 -0.737725,0.17216 -1.466779,0.34691 -2.18643,0.52349 -0.719651,0.17658 -1.429745,0.35535 -2.130102,0.5364 -0.700357,0.18105 -1.39083,0.36427 -2.070674,0.54984 -0.679847,0.18556 -1.348994,0.37315 -2.007113,0.56327 -0.65812,0.19012 -1.305277,0.3825 -1.940449,0.57723 -0.635175,0.19472 -1.258644,0.39181 -1.869655,0.59117 -0.61101,0.19937 -1.209608,0.40109 -1.79524,0.60513 -0.475657,0.16573 -0.936561,0.33397 -1.394745,0.50282 a 60.631247,60.631247 0 0 0 17.847489,16.001601 c 1.581198,-0.0846 3.121631,-0.16508 4.845182,-0.26355 2.624485,-0.14993 5.399363,-0.3158 8.279599,-0.49867 2.880233,-0.18288 5.865846,-0.38266 8.912116,-0.59945 1.523135,-0.1084 3.061197,-0.2209 4.609019,-0.33796 1.54782,-0.11706 3.10509,-0.23848 4.66638,-0.36432 1.5613,-0.12585 3.1266,-0.25644 4.69016,-0.39119 1.56355,-0.13476 3.12573,-0.27376 4.68033,-0.41755 1.5546,-0.14379 3.10147,-0.2925 4.63589,-0.44545 1.53443,-0.15295 3.05638,-0.3101 4.55941,-0.47232 1.50305,-0.16223 2.98735,-0.32912 4.4478,-0.50075 1.46044,-0.17162 2.89698,-0.34801 4.30361,-0.52916 1.40663,-0.18116 2.78321,-0.36731 4.12481,-0.55811 1.3416,-0.1908 2.6481,-0.38647 3.91346,-0.58704 1.26535,-0.20057 2.489575,-0.40604 3.667465,-0.6165 0.0587,-0.0105 0.11411,-0.0215 0.1726,-0.032 a 60.631247,60.631247 0 0 0 17.1974,-25.175731 z" />
      <rect
         style="display:inline;fill:#ffd402;fill-opacity:1;fill-rule:nonzero;stroke:none;stroke-width:1.81653;stroke-linecap:round;stroke-linejoin:round;stroke-miterlimit:4;stroke-dasharray:none;stroke-opacity:1;paint-order:stroke fill markers"
         id="rect52286-4"
         width="15.895561"
         height="8.4057894"
         x="53.851151"
         y="18.953257" />
      <path
         style="display:inline;fill:#ffffff;fill-opacity:1;stroke:#000000;stroke-width:1;stroke-linecap:round;stroke-linejoin:round;stroke-miterlimit:4;stroke-dasharray:none;stroke-opacity:1"
         d="m 61.567825,36.717599 -18.153468,2.8476 -3.197569,56.41708 21.706987,5.251321 z"
         id="path44488-2" />
      <path
         style="display:inline;fill:#000000;stroke:#000000;stroke-width:0.7;stroke-linecap:butt;stroke-linejoin:miter;stroke-miterlimit:4;stroke-dasharray:none;stroke-opacity:1"
         d="m 54.264509,42.009449 -4.5777,0.58205 -0.15731,5.94629 4.67097,-0.54407 z"
         id="path44702-78"
         sodipodi:nodetypes="ccccc" />
      <path
         style="display:inline;fill:#000000;stroke:#000000;stroke-width:0.5;stroke-linecap:round;stroke-linejoin:round;stroke-miterlimit:4;stroke-dasharray:none;stroke-opacity:1"
         d="m 62.096995,36.717599 0.043,-5.42091 -22.489552,3.96419 c 0,0 5.325436,2.25334 3.763884,4.30432"
         id="path45430-0"
         sodipodi:nodetypes="cccc" />
      <path
         style="display:inline;fill:#ffffff;fill-opacity:1;stroke:#000000;stroke-width:1;stroke-linecap:round;stroke-linejoin:round;stroke-miterlimit:4;stroke-dasharray:none;stroke-opacity:1"
         d="m 62.279725,36.717599 18.15347,2.8476 3.19757,56.41708 -21.70699,5.251321 z"
         id="path44488-0-5" />
      <path
         style="display:inline;fill:#000000;stroke:#000000;stroke-width:0.7;stroke-linecap:butt;stroke-linejoin:miter;stroke-miterlimit:4;stroke-dasharray:none;stroke-opacity:1"
         d="m 70.652755,55.223439 2.94168,0.2045 0.34608,10.09925 -3.08327,-0.0629 z"
         id="path44702-7-2"
         sodipodi:nodetypes="ccccc" />
      <path
         style="display:inline;fill:#000000;stroke:#000000;stroke-width:0.5;stroke-linecap:round;stroke-linejoin:round;stroke-miterlimit:4;stroke-dasharray:none;stroke-opacity:1"
         d="m 61.750555,36.717599 -0.043,-5.42091 22.48955,3.96419 c 0,0 -5.32543,2.25334 -3.76388,4.30432"
         id="path45430-2-2"
         sodipodi:nodetypes="cccc" />
      <path
         style="display:inline;fill:#000000;stroke:#000000;stroke-width:0.264583px;stroke-linecap:butt;stroke-linejoin:miter;stroke-opacity:1"
         d="m 53.745388,33.310239 v -6.04067 h 16.297247 v 6.54406 z"
         id="path46219-9" />
      <path
         style="display:inline;fill:#000000;fill-opacity:1;stroke:#000000;stroke-width:0.264583px;stroke-linecap:butt;stroke-linejoin:miter;stroke-opacity:1"
         d="m 53.745386,27.269569 c 0,0 7.063269,-2.07815 16.297249,0 0.60912,0.13708 -16.297249,0 -16.297249,0 v 0"
         id="path46437-7"
         sodipodi:nodetypes="cscc" />
      <circle
         style="display:inline;fill:#000000;fill-opacity:1;stroke:none;stroke-width:0.818644;stroke-linecap:round;stroke-linejoin:round;stroke-miterlimit:4;stroke-dasharray:none;stroke-opacity:1;paint-order:stroke fill markers"
         id="path48683-9"
         cx="61.823223"
         cy="12.293726"
         r="1.0854343" />
      <path
         id="path49242-5"
         style="display:inline;fill:#000000;fill-opacity:1;stroke:#000000;stroke-width:0.264583px;stroke-linecap:butt;stroke-linejoin:miter;stroke-opacity:1"
         d="m 60.722075,13.945469 0.40901,-0.14157 0.0157,-0.64497 h 1.35286 l 0.0157,0.64497 0.40901,0.14157 0.0315,1.10116 7.14185,4.23162 c 0,0 0.44044,0.37754 0.0629,1.44725 -8.62054,-3.7125 -16.674777,0 -16.674777,0 -0.37755,-1.06971 0.0629,-1.44725 0.0629,-1.44725 l 7.141847,-4.23162 z"
         sodipodi:nodetypes="ccccccccccccc" />
      <path
         style="display:inline;fill:none;stroke:#000000;stroke-width:0.264583px;stroke-linecap:butt;stroke-linejoin:miter;stroke-opacity:1"
         d="m 69.776935,20.388369 v 7.23024"
         id="path49923-42" />
      <path
         style="display:inline;fill:none;stroke:#000000;stroke-width:0.264583px;stroke-linecap:butt;stroke-linejoin:miter;stroke-opacity:1"
         d="m 53.894832,20.568489 v 7.23024"
         id="path49923-4-8" />
      <path
         style="display:inline;fill:none;stroke:#000000;stroke-width:0.264583px;stroke-linecap:butt;stroke-linejoin:miter;stroke-opacity:1"
         d="m 69.831995,20.388369 v 7.23024"
         id="path49923-6-5" />
      <path
         style="display:inline;fill:none;stroke:#000000;stroke-width:0.264583px;stroke-linecap:butt;stroke-linejoin:miter;stroke-opacity:1"
         d="m 61.783895,19.151039 v 7.23024"
         id="path49923-3-9" />
      <path
         style="display:inline;fill:none;stroke:#000000;stroke-width:0.264583px;stroke-linecap:butt;stroke-linejoin:miter;stroke-opacity:1"
         d="m 57.363507,19.501479 v 7.23024"
         id="path49923-30-6" />
      <path
         style="display:inline;fill:none;stroke:#000000;stroke-width:0.264583px;stroke-linecap:butt;stroke-linejoin:miter;stroke-opacity:1"
         d="m 66.330145,19.412779 v 7.23024"
         id="path49923-48-4" />
    </g>
    <text
       xml:space="preserve"
       style="font-style:normal;font-variant:normal;font-weight:normal;font-stretch:normal;font-size:42.3333px;line-height:1.25;font-family:'Cera Pro';-inkscape-font-specification:'Cera Pro';text-align:center;text-anchor:middle;fill:#000000;fill-opacity:1;stroke:none;stroke-width:1.42963"
       x="237.84351"
       y="90.239944"
       id="text9780"><tspan
         sodipodi:role="line"
         id="tspan9778"
         style="font-style:normal;font-variant:normal;font-weight:300;font-stretch:normal;font-size:42.3333px;font-family:'Cera Pro';-inkscape-font-specification:'Cera Pro Light';text-align:start;text-anchor:start;fill:#000000;stroke-width:1.42963"
         x="237.84351"
         y="90.239944">ISLESBORO</tspan><tspan
         sodipodi:role="line"
         style="font-style:normal;font-variant:normal;font-weight:500;font-stretch:normal;font-size:42.3333px;font-family:'Cera Pro';-inkscape-font-specification:'Cera Pro Medium';text-align:start;text-anchor:start;fill:#000000;stroke-width:1.42963"
         x="237.84351"
         y="143.15659"
         id="tspan46527">ENERGY</tspan><tspan
         sodipodi:role="line"
         style="font-style:normal;font-variant:normal;font-weight:500;font-stretch:normal;font-size:42.3333px;font-family:'Cera Pro';-inkscape-font-specification:'Cera Pro Medium';text-align:start;text-anchor:start;fill:#000000;stroke-width:1.42963"
         x="237.84351"
         y="196.07321"
         id="tspan23649">COMMITTEE</tspan></text>
  </g>
  <g
     inkscape:groupmode="layer"
     id="layer1"
     inkscape:label="Layer 3" />
</svg>
