<?xml version="1.0" encoding="UTF-8" standalone="no"?>
<!-- Created with Inkscape (http://www.inkscape.org/) -->

<svg
   width="125mm"
   height="125mm"
   viewBox="0 0 125 125"
   version="1.1"
   id="svg22470"
   inkscape:version="1.1 (c4e8f9e, 2021-05-24)"
   sodipodi:docname="lighthouse_grayscale.svg"
   xmlns:inkscape="http://www.inkscape.org/namespaces/inkscape"
   xmlns:sodipodi="http://sodipodi.sourceforge.net/DTD/sodipodi-0.dtd"
   xmlns="http://www.w3.org/2000/svg"
   xmlns:svg="http://www.w3.org/2000/svg">
  <sodipodi:namedview
     id="namedview22472"
     pagecolor="#ffffff"
     bordercolor="#666666"
     borderopacity="1.0"
     inkscape:pageshadow="2"
     inkscape:pageopacity="0.0"
     inkscape:pagecheckerboard="0"
     inkscape:document-units="mm"
     showgrid="false"
     fit-margin-top="5"
     lock-margins="true"
     fit-margin-left="5"
     fit-margin-right="5"
     fit-margin-bottom="5"
     inkscape:zoom="0.52560325"
     inkscape:cx="151.25477"
     inkscape:cy="317.73015"
     inkscape:window-width="1312"
     inkscape:window-height="812"
     inkscape:window-x="0"
     inkscape:window-y="0"
     inkscape:window-maximized="0"
     inkscape:current-layer="layer5" />
  <defs
     id="defs22467" />
  <g
     inkscape:label="Layer 1"
     inkscape:groupmode="layer"
     id="layer1"
     transform="translate(-64.824775,-64.424261)">
    <path
       id="path985"
       style="display:inline;fill:#cccccc;stroke:none;stroke-width:0.231139px;stroke-linecap:butt;stroke-linejoin:miter;stroke-opacity:1"
       inkscape:transform-center-x="36.20846"
       inkscape:transform-center-y="8.9050922"
       d="m 79.728181,88.528006 a 60.631247,60.631247 0 0 0 -0.231511,0.283702 60.631247,60.631247 0 0 0 -1.817978,2.47582 60.631247,60.631247 0 0 0 -1.690852,2.565218 60.631247,60.631247 0 0 0 -1.558044,2.646865 60.631247,60.631247 0 0 0 -1.422654,2.722832 60.631247,60.631247 0 0 0 -1.282091,2.791567 60.631247,60.631247 0 0 0 -0.226859,0.56741 L 126.76873,88.941933 Z" />
    <path
       id="path982"
       style="display:inline;fill:#cccccc;stroke:none;stroke-width:0.231139px;stroke-linecap:butt;stroke-linejoin:miter;stroke-opacity:1"
       inkscape:transform-center-x="34.329005"
       inkscape:transform-center-y="-9.2189499"
       d="m 94.490587,75.072496 a 60.631247,60.631247 0 0 0 -1.203029,0.756026 60.631247,60.631247 0 0 0 -3.648356,2.692342 60.631247,60.631247 0 0 0 -3.436482,2.957444 60.631247,60.631247 0 0 0 -3.206006,3.206522 60.631247,60.631247 0 0 0 -0.782381,0.908987 l 44.567317,3.352768 z" />
    <path
       id="path976"
       style="display:inline;fill:#cccccc;stroke:none;stroke-width:0.231139px;stroke-linecap:butt;stroke-linejoin:miter;stroke-opacity:1"
       inkscape:transform-center-x="-36.208459"
       inkscape:transform-center-y="8.9050922"
       d="m 183.55182,102.94833 a 60.631247,60.631247 0 0 0 -0.3917,-0.93432 60.631247,60.631247 0 0 0 -0.41187,-0.93741 60.631247,60.631247 0 0 0 -0.42736,-0.9307 60.631247,60.631247 0 0 0 -0.44338,-0.923457 60.631247,60.631247 0 0 0 -0.45889,-0.915188 60.631247,60.631247 0 0 0 -0.47387,-0.907958 60.631247,60.631247 0 0 0 -0.48938,-0.899686 60.631247,60.631247 0 0 0 -0.50488,-0.8909 60.631247,60.631247 0 0 0 -0.51935,-0.882634 60.631247,60.631247 0 0 0 -0.53433,-0.873331 60.631247,60.631247 0 0 0 -0.5488,-0.864548 60.631247,60.631247 0 0 0 -0.56379,-0.855244 60.631247,60.631247 0 0 0 -0.57774,-0.845426 60.631247,60.631247 0 0 0 -0.59222,-0.83561 60.631247,60.631247 0 0 0 -0.60616,-0.825272 60.631247,60.631247 0 0 0 -0.62012,-0.814938 60.631247,60.631247 0 0 0 -0.23254,-0.295587 l -48.36036,0.425812 z" />
    <path
       id="path979"
       style="display:inline;fill:#cccccc;stroke:none;stroke-width:0.231139px;stroke-linecap:butt;stroke-linejoin:miter;stroke-opacity:1"
       inkscape:transform-center-x="-34.329006"
       inkscape:transform-center-y="-9.2189499"
       d="m 172.62329,85.498217 a 60.631247,60.631247 0 0 0 -0.68471,-0.759126 60.631247,60.631247 0 0 0 -1.07487,-1.132232 60.631247,60.631247 0 0 0 -1.10432,-1.10381 60.631247,60.631247 0 0 0 -1.13172,-1.075385 60.631247,60.631247 0 0 0 -1.15962,-1.045414 60.631247,60.631247 0 0 0 -1.18546,-1.015442 60.631247,60.631247 0 0 0 -1.21181,-0.984438 60.631247,60.631247 0 0 0 -1.23662,-0.953428 60.631247,60.631247 0 0 0 -1.2609,-0.920875 60.631247,60.631247 0 0 0 -1.28364,-0.888317 60.631247,60.631247 0 0 0 -1.3069,-0.854729 60.631247,60.631247 0 0 0 -0.0796,-0.04909 l -33.12149,14.230657 z" />
    <path
       id="path48275"
       style="display:inline;fill:#999999;fill-opacity:1;stroke:none;stroke-width:1.66206;stroke-linecap:round;stroke-linejoin:round;stroke-opacity:1;paint-order:stroke fill markers"
       d="M 183.47248,149.09284 A 60.631247,60.631247 0 0 1 127.44241,186.55558 60.631247,60.631247 0 0 1 71.412276,149.09269" />
    <path
       id="path50597"
       style="display:inline;fill:#4d4d4d;fill-opacity:1;stroke:none;stroke-width:1.662;stroke-linecap:round;stroke-linejoin:round;stroke-miterlimit:4;stroke-dasharray:none;stroke-opacity:1;paint-order:stroke fill markers"
       d="m 184.46443,146.41184 c -1.53878,0.10052 -3.10958,0.20376 -4.9289,0.33228 -2.31048,0.16321 -4.83181,0.3494 -7.52512,0.56017 -2.69331,0.21077 -5.55888,0.44642 -8.5571,0.70745 -1.49911,0.13052 -3.03124,0.26724 -4.59197,0.41083 -1.56073,0.14359 -3.14989,0.29362 -4.7625,0.45062 -1.6126,0.157 -3.24883,0.32121 -4.90357,0.49196 -1.65475,0.17075 -3.32806,0.34846 -5.0152,0.5333 -1.68714,0.18484 -3.38808,0.37641 -5.09788,0.57567 -1.7098,0.19927 -3.42839,0.40609 -5.15111,0.62012 -1.72272,0.21403 -3.44949,0.43543 -5.17539,0.66456 -1.7259,0.22913 -3.45089,0.46598 -5.17023,0.71055 -1.71934,0.24457 -3.43308,0.49672 -5.13612,0.75706 -1.70304,0.26034 -3.39556,0.52866 -5.07256,0.80512 -1.677,0.27646 -3.33832,0.5613 -4.97954,0.85421 -1.64123,0.29291 -3.2624,0.59412 -4.8581,0.90382 -0.79785,0.15485 -1.58937,0.31166 -2.37402,0.47077 -0.78466,0.15912 -1.562457,0.32028 -2.332681,0.4837 -0.770224,0.16341 -1.532615,0.32936 -2.287199,0.49712 -0.754584,0.16776 -1.501412,0.33738 -2.239139,0.50953 -0.737725,0.17215 -1.466779,0.3469 -2.18643,0.52348 -0.719651,0.17659 -1.429745,0.35535 -2.130102,0.53641 -0.700357,0.18105 -1.39083,0.36427 -2.070674,0.54983 -0.679847,0.18557 -1.348994,0.37315 -2.007113,0.56328 -0.65812,0.19012 -1.305277,0.3825 -1.940449,0.57722 -0.635175,0.19472 -1.258644,0.39182 -1.869655,0.59118 -0.61101,0.19936 -1.209608,0.40109 -1.79524,0.60513 -0.475657,0.16573 -0.936561,0.33397 -1.394745,0.50281 a 60.631247,60.631247 0 0 0 17.847489,16.00161 c 1.581198,-0.0846 3.121631,-0.16508 4.845188,-0.26355 2.62449,-0.14993 5.39937,-0.3158 8.2796,-0.49868 2.88023,-0.18287 5.86585,-0.38265 8.91212,-0.59944 1.52313,-0.1084 3.0612,-0.22091 4.60902,-0.33797 1.54782,-0.11706 3.10508,-0.23847 4.66638,-0.36431 1.5613,-0.12585 3.1266,-0.25644 4.69015,-0.3912 1.56356,-0.13475 3.12574,-0.27375 4.68034,-0.41754 1.5546,-0.14379 3.10146,-0.29251 4.63589,-0.44545 1.53443,-0.15295 3.05637,-0.3101 4.55941,-0.47233 1.50304,-0.16222 2.98735,-0.32911 4.44779,-0.50074 1.46044,-0.17163 2.89699,-0.34802 4.30361,-0.52917 1.40663,-0.18115 2.78322,-0.3673 4.12482,-0.5581 1.3416,-0.1908 2.6481,-0.38648 3.91345,-0.58705 1.26536,-0.20057 2.48958,-0.40603 3.66748,-0.6165 0.0587,-0.0105 0.1141,-0.0215 0.1726,-0.032 a 60.631247,60.631247 0 0 0 17.1974,-25.17572 z" />
    <rect
       style="display:inline;fill:#b3b3b3;fill-opacity:1;fill-rule:nonzero;stroke:none;stroke-width:1.81653;stroke-linecap:round;stroke-linejoin:round;stroke-miterlimit:4;stroke-dasharray:none;stroke-opacity:1;paint-order:stroke fill markers"
       id="rect52286"
       width="15.895561"
       height="8.4057894"
       x="118.67591"
       y="83.37748" />
    <path
       style="display:inline;fill:#ffffff;fill-opacity:1;stroke:#000000;stroke-width:1;stroke-linecap:round;stroke-linejoin:round;stroke-miterlimit:4;stroke-dasharray:none;stroke-opacity:1"
       d="m 126.3926,101.14183 -18.15347,2.84762 -3.19757,56.41709 21.70699,5.25132 z"
       id="path44488" />
    <path
       style="display:inline;fill:#000000;stroke:#000000;stroke-width:0.7;stroke-linecap:butt;stroke-linejoin:miter;stroke-miterlimit:4;stroke-dasharray:none;stroke-opacity:1"
       d="m 119.08928,106.43371 -4.5777,0.58204 -0.15731,5.94629 4.67097,-0.54406 z"
       id="path44702"
       sodipodi:nodetypes="ccccc" />
    <path
       style="display:inline;fill:#000000;stroke:#000000;stroke-width:0.5;stroke-linecap:round;stroke-linejoin:round;stroke-miterlimit:4;stroke-dasharray:none;stroke-opacity:1"
       d="m 126.92177,101.14183 0.043,-5.420917 -22.48956,3.964194 c 0,0 5.32544,2.253353 3.76389,4.304343"
       id="path45430"
       sodipodi:nodetypes="cccc" />
    <path
       style="display:inline;fill:#ffffff;fill-opacity:1;stroke:#000000;stroke-width:1;stroke-linecap:round;stroke-linejoin:round;stroke-miterlimit:4;stroke-dasharray:none;stroke-opacity:1"
       d="m 127.1045,101.14183 18.15347,2.84762 3.19757,56.41709 -21.70699,5.25132 z"
       id="path44488-0" />
    <path
       style="display:inline;fill:#000000;stroke:#000000;stroke-width:0.7;stroke-linecap:butt;stroke-linejoin:miter;stroke-miterlimit:4;stroke-dasharray:none;stroke-opacity:1"
       d="m 135.47753,119.64769 2.94168,0.2045 0.34608,10.09926 -3.08327,-0.0629 z"
       id="path44702-7"
       sodipodi:nodetypes="ccccc" />
    <path
       style="display:inline;fill:#000000;stroke:#000000;stroke-width:0.5;stroke-linecap:round;stroke-linejoin:round;stroke-miterlimit:4;stroke-dasharray:none;stroke-opacity:1"
       d="m 126.57533,101.14183 -0.043,-5.420917 22.48955,3.964194 c 0,0 -5.32543,2.253353 -3.76388,4.304343"
       id="path45430-2"
       sodipodi:nodetypes="cccc" />
    <path
       style="display:inline;fill:#000000;stroke:#000000;stroke-width:0.264583px;stroke-linecap:butt;stroke-linejoin:miter;stroke-opacity:1"
       d="m 118.57016,97.734471 v -6.040678 h 16.29725 v 6.544069 z"
       id="path46219" />
    <path
       style="display:inline;fill:#000000;fill-opacity:1;stroke:#000000;stroke-width:0.264583px;stroke-linecap:butt;stroke-linejoin:miter;stroke-opacity:1"
       d="m 118.57016,91.693793 c 0,0 7.06327,-2.078142 16.29725,0 0.60912,0.137085 -16.29725,0 -16.29725,0 v 0"
       id="path46437"
       sodipodi:nodetypes="cscc" />
    <circle
       style="display:inline;fill:#000000;fill-opacity:1;stroke:none;stroke-width:0.818644;stroke-linecap:round;stroke-linejoin:round;stroke-miterlimit:4;stroke-dasharray:none;stroke-opacity:1;paint-order:stroke fill markers"
       id="path48683"
       cx="126.64798"
       cy="76.717949"
       r="1.0854343" />
    <path
       id="path49242"
       style="display:inline;fill:#000000;fill-opacity:1;stroke:#000000;stroke-width:0.264583px;stroke-linecap:butt;stroke-linejoin:miter;stroke-opacity:1"
       d="m 125.54685,78.369694 0.40901,-0.141569 0.0157,-0.64497 h 1.35286 l 0.0157,0.64497 0.40901,0.141569 0.0315,1.101167 7.14185,4.231619 c 0,0 0.44044,0.377542 0.0629,1.447247 -8.62054,-3.712501 -16.67478,0 -16.67478,0 -0.37755,-1.069705 0.0629,-1.447247 0.0629,-1.447247 l 7.14185,-4.231619 z"
       sodipodi:nodetypes="ccccccccccccc" />
    <path
       style="display:inline;fill:none;stroke:#000000;stroke-width:0.264583px;stroke-linecap:butt;stroke-linejoin:miter;stroke-opacity:1"
       d="m 134.60171,84.8126 v 7.230242"
       id="path49923" />
    <path
       style="display:inline;fill:none;stroke:#000000;stroke-width:0.264583px;stroke-linecap:butt;stroke-linejoin:miter;stroke-opacity:1"
       d="M 118.7196,84.992718 V 92.22296"
       id="path49923-4" />
    <path
       style="display:inline;fill:none;stroke:#000000;stroke-width:0.264583px;stroke-linecap:butt;stroke-linejoin:miter;stroke-opacity:1"
       d="m 134.65677,84.8126 v 7.230242"
       id="path49923-6" />
    <path
       style="display:inline;fill:none;stroke:#000000;stroke-width:0.264583px;stroke-linecap:butt;stroke-linejoin:miter;stroke-opacity:1"
       d="m 126.60867,83.575266 v 7.230242"
       id="path49923-3" />
    <path
       style="display:inline;fill:none;stroke:#000000;stroke-width:0.264583px;stroke-linecap:butt;stroke-linejoin:miter;stroke-opacity:1"
       d="M 122.18828,83.925708 V 91.15595"
       id="path49923-30" />
    <path
       style="display:inline;fill:none;stroke:#000000;stroke-width:0.264583px;stroke-linecap:butt;stroke-linejoin:miter;stroke-opacity:1"
       d="m 131.15492,83.837007 v 7.230242"
       id="path49923-48" />
  </g>
  <g
     inkscape:groupmode="layer"
     id="layer5"
     inkscape:label="Layer 2" />
</svg>
