<?xml version="1.0" encoding="UTF-8" standalone="no"?>
<!-- Created with Inkscape (http://www.inkscape.org/) -->

<svg
   width="8.5in"
   height="11in"
   viewBox="0 0 215.9 279.4"
   version="1.1"
   id="svg22470"
   inkscape:version="1.1 (c4e8f9e, 2021-05-24)"
   sodipodi:docname="jamboree_nametag_lanyards.svg"
   inkscape:export-filename="/Users/cressica/lighthouse_color.png"
   inkscape:export-xdpi="97.466576"
   inkscape:export-ydpi="97.466576"
   xmlns:inkscape="http://www.inkscape.org/namespaces/inkscape"
   xmlns:sodipodi="http://sodipodi.sourceforge.net/DTD/sodipodi-0.dtd"
   xmlns="http://www.w3.org/2000/svg"
   xmlns:svg="http://www.w3.org/2000/svg">
  <sodipodi:namedview
     id="namedview22472"
     pagecolor="#ffffff"
     bordercolor="#666666"
     borderopacity="1.0"
     inkscape:pageshadow="2"
     inkscape:pageopacity="0.0"
     inkscape:pagecheckerboard="0"
     inkscape:document-units="in"
     showgrid="false"
     fit-margin-top="5"
     lock-margins="true"
     fit-margin-left="5"
     fit-margin-right="5"
     fit-margin-bottom="5"
     inkscape:zoom="0.52560325"
     inkscape:cx="442.34886"
     inkscape:cy="332.95076"
     inkscape:window-width="1312"
     inkscape:window-height="812"
     inkscape:window-x="0"
     inkscape:window-y="0"
     inkscape:window-maximized="0"
     inkscape:current-layer="layer5"
     units="in" />
  <defs
     id="defs22467" />
  <g
     inkscape:groupmode="layer"
     id="layer5"
     inkscape:label="Layer 2"
     style="display:inline">
    <rect
       style="fill:none;stroke:#999999;stroke-width:0.180669;stroke-miterlimit:4;stroke-dasharray:none;stroke-dashoffset:0;paint-order:stroke fill markers;stop-color:#000000"
       id="rect1001"
       width="152.21933"
       height="114.11933"
       x="-0.73489267"
       y="11.124411"
       ry="6.5440683"
       rx="6.5440683" />
    <text
       xml:space="preserve"
       style="font-style:normal;font-variant:normal;font-weight:bold;font-stretch:normal;font-size:6.03179px;line-height:1.15;font-family:sans-serif;-inkscape-font-specification:'sans-serif Bold';text-align:start;text-anchor:start;fill:#000000;fill-opacity:1;stroke:none;stroke-width:0.347987"
       x="10.432795"
       y="76.743134"
       id="text3483"><tspan
         sodipodi:role="line"
         style="font-style:normal;font-variant:normal;font-weight:bold;font-stretch:normal;font-size:6.03179px;font-family:'Cera Pro';-inkscape-font-specification:'Cera Pro Bold';text-align:start;text-anchor:start;stroke-width:0.347987"
         x="10.432795"
         y="76.743134"
         id="tspan3485">ASK ME ABOUT MY</tspan></text>
    <text
       xml:space="preserve"
       style="font-style:normal;font-variant:normal;font-weight:bold;font-stretch:normal;font-size:6.03179px;line-height:1.15;font-family:sans-serif;-inkscape-font-specification:'sans-serif Bold';text-align:end;text-anchor:end;display:inline;fill:#000000;fill-opacity:1;stroke:none;stroke-width:0.347987"
       x="142.31618"
       y="77.405205"
       id="text3483-9"><tspan
         sodipodi:role="line"
         style="font-style:normal;font-variant:normal;font-weight:bold;font-stretch:normal;font-size:6.03179px;font-family:'Cera Pro';-inkscape-font-specification:'Cera Pro Bold';text-align:end;text-anchor:end;fill:#000000;fill-opacity:1;stroke-width:0.347987"
         x="142.31618"
         y="77.405205"
         id="tspan7611">TELL ME ABOUT</tspan></text>
    <text
       xml:space="preserve"
       style="font-style:normal;font-variant:normal;font-weight:bold;font-stretch:normal;font-size:9.28989px;line-height:1.45;font-family:'Marker Felt';-inkscape-font-specification:'Marker Felt Bold';text-align:start;text-anchor:start;display:inline;fill:#000000;fill-opacity:1;stroke:none;stroke-width:0.387079"
       x="8.6804256"
       y="103.71724"
       id="text3483-1"
       transform="scale(1.112334,0.89901055)"><tspan
         sodipodi:role="line"
         style="font-style:normal;font-variant:normal;font-weight:bold;font-stretch:normal;font-size:9.28989px;font-family:'Marker Felt';-inkscape-font-specification:'Marker Felt Bold';text-align:start;text-anchor:start;stroke-width:0.387079"
         x="8.6804256"
         y="103.71724"
         id="tspan13293">HEAT PUMP</tspan><tspan
         sodipodi:role="line"
         style="font-style:normal;font-variant:normal;font-weight:bold;font-stretch:normal;font-size:9.28989px;font-family:'Marker Felt';-inkscape-font-specification:'Marker Felt Bold';text-align:start;text-anchor:start;stroke-width:0.387079"
         x="8.6804256"
         y="117.18758"
         id="tspan13297">INDUCTION STOVE</tspan><tspan
         sodipodi:role="line"
         style="font-style:normal;font-variant:normal;font-weight:bold;font-stretch:normal;font-size:9.28989px;font-family:'Marker Felt';-inkscape-font-specification:'Marker Felt Bold';text-align:start;text-anchor:start;stroke-width:0.387079"
         x="8.6804256"
         y="130.65793"
         id="tspan20460">E-BIKE</tspan></text>
    <text
       xml:space="preserve"
       style="font-style:normal;font-variant:normal;font-weight:bold;font-stretch:normal;font-size:13.6178px;line-height:1.15;font-family:'Marker Felt';-inkscape-font-specification:'Marker Felt Bold';text-align:start;text-anchor:start;display:inline;fill:#000000;fill-opacity:1;stroke:none;stroke-width:0.405736"
       x="44.4468"
       y="59.023731"
       id="text3483-1-4"
       transform="scale(1.112334,0.89901055)"><tspan
         sodipodi:role="line"
         style="font-style:normal;font-variant:normal;font-weight:bold;font-stretch:normal;font-size:13.6178px;font-family:'Marker Felt';-inkscape-font-specification:'Marker Felt Bold';text-align:start;text-anchor:start;stroke-width:0.405736"
         x="44.4468"
         y="59.023731"
         id="tspan13297-5">JOHNNA</tspan></text>
    <text
       xml:space="preserve"
       style="font-style:normal;font-variant:normal;font-weight:bold;font-stretch:normal;font-size:9.28989px;line-height:1.45;font-family:'Marker Felt';-inkscape-font-specification:'Marker Felt Bold';text-align:end;text-anchor:end;display:inline;fill:#000000;fill-opacity:1;stroke:none;stroke-width:0.387079"
       x="127.90398"
       y="103.61745"
       id="text3483-1-6"
       transform="scale(1.112334,0.89901055)"><tspan
         sodipodi:role="line"
         style="font-style:normal;font-variant:normal;font-weight:normal;font-stretch:normal;font-size:9.28989px;font-family:'Marker Felt';-inkscape-font-specification:'Marker Felt';text-align:end;text-anchor:end;fill:#000000;fill-opacity:1;stroke-width:0.387079"
         x="127.90398"
         y="103.61745"
         id="tspan20460-2">EVs</tspan><tspan
         sodipodi:role="line"
         style="font-style:normal;font-variant:normal;font-weight:normal;font-stretch:normal;font-size:9.28989px;font-family:'Marker Felt';-inkscape-font-specification:'Marker Felt';text-align:end;text-anchor:end;fill:#000000;fill-opacity:1;stroke-width:0.387079"
         x="127.90398"
         y="117.08779"
         id="tspan22782">SOLAR</tspan></text>
    <g
       id="g1473"
       transform="matrix(0.28745491,0,0,0.28745491,-26.461607,55.528009)"
       style="display:inline">
      <path
         id="path985"
         style="display:inline;fill:#b3b3b3;stroke:none;stroke-width:0.200927px;stroke-linecap:butt;stroke-linejoin:miter;stroke-opacity:1"
         inkscape:transform-center-x="36.20846"
         inkscape:transform-center-y="8.9050922"
         d="m 138.58152,-58.576628 a 52.70622,52.70622 0 0 0 -0.20125,0.246619 52.70622,52.70622 0 0 0 -1.58036,2.152209 52.70622,52.70622 0 0 0 -1.46984,2.229922 52.70622,52.70622 0 0 0 -1.35439,2.300897 52.70622,52.70622 0 0 0 -1.2367,2.366934 52.70622,52.70622 0 0 0 -1.11452,2.426686 52.70622,52.70622 0 0 0 -0.1972,0.493244 l 48.0462,-11.856688 z" />
      <path
         id="path982"
         style="display:inline;fill:#b3b3b3;stroke:none;stroke-width:0.200927px;stroke-linecap:butt;stroke-linejoin:miter;stroke-opacity:1"
         inkscape:transform-center-x="34.329005"
         inkscape:transform-center-y="-9.2189499"
         d="m 151.41435,-70.273387 a 52.70622,52.70622 0 0 0 -1.04578,0.657207 52.70622,52.70622 0 0 0 -3.17149,2.340429 52.70622,52.70622 0 0 0 -2.9873,2.570881 52.70622,52.70622 0 0 0 -2.78696,2.787402 52.70622,52.70622 0 0 0 -0.68011,0.790174 l 38.74198,2.914533 z" />
      <path
         id="path976"
         style="display:inline;fill:#b3b3b3;stroke:none;stroke-width:0.200927px;stroke-linecap:butt;stroke-linejoin:miter;stroke-opacity:1"
         inkscape:transform-center-x="-36.208459"
         inkscape:transform-center-y="8.9050922"
         d="m 228.83451,-46.041165 a 52.70622,52.70622 0 0 0 -0.3405,-0.812196 52.70622,52.70622 0 0 0 -0.35804,-0.814883 52.70622,52.70622 0 0 0 -0.3715,-0.809049 52.70622,52.70622 0 0 0 -0.38542,-0.802754 52.70622,52.70622 0 0 0 -0.39891,-0.795565 52.70622,52.70622 0 0 0 -0.41193,-0.78928 52.70622,52.70622 0 0 0 -0.42542,-0.782089 52.70622,52.70622 0 0 0 -0.43889,-0.774452 52.70622,52.70622 0 0 0 -0.45146,-0.767266 52.70622,52.70622 0 0 0 -0.46449,-0.759179 52.70622,52.70622 0 0 0 -0.47707,-0.751544 52.70622,52.70622 0 0 0 -0.49009,-0.743456 52.70622,52.70622 0 0 0 -0.50223,-0.734922 52.70622,52.70622 0 0 0 -0.51481,-0.726388 52.70622,52.70622 0 0 0 -0.52693,-0.717402 52.70622,52.70622 0 0 0 -0.53907,-0.708419 52.70622,52.70622 0 0 0 -0.20214,-0.256951 l -42.03924,0.370155 z" />
      <path
         id="path979"
         style="display:inline;fill:#b3b3b3;stroke:none;stroke-width:0.200927px;stroke-linecap:butt;stroke-linejoin:miter;stroke-opacity:1"
         inkscape:transform-center-x="-34.329006"
         inkscape:transform-center-y="-9.2189499"
         d="m 219.33443,-61.210398 a 52.70622,52.70622 0 0 0 -0.59521,-0.659901 52.70622,52.70622 0 0 0 -0.93437,-0.98424 52.70622,52.70622 0 0 0 -0.95998,-0.959533 52.70622,52.70622 0 0 0 -0.98379,-0.934822 52.70622,52.70622 0 0 0 -1.00805,-0.90877 52.70622,52.70622 0 0 0 -1.03051,-0.882715 52.70622,52.70622 0 0 0 -1.05342,-0.855763 52.70622,52.70622 0 0 0 -1.07498,-0.828807 52.70622,52.70622 0 0 0 -1.09609,-0.800509 52.70622,52.70622 0 0 0 -1.11586,-0.772206 52.70622,52.70622 0 0 0 -1.13608,-0.743008 52.70622,52.70622 0 0 0 -0.0692,-0.04267 l -28.79223,12.370587 z" />
      <path
         id="path48275"
         style="display:inline;fill:#999999;fill-opacity:1;stroke:none;stroke-width:1.44481;stroke-linecap:round;stroke-linejoin:round;stroke-opacity:1;paint-order:stroke fill markers"
         d="M 228.76554,-5.9281409 A 52.70622,52.70622 0 0 1 180.05908,26.637896 52.70622,52.70622 0 0 1 131.35257,-5.9282713" />
      <path
         id="path50597"
         style="display:inline;fill:#4d4d4d;fill-opacity:1;stroke:none;stroke-width:1.44476;stroke-linecap:round;stroke-linejoin:round;stroke-miterlimit:4;stroke-dasharray:none;stroke-opacity:1;paint-order:stroke fill markers"
         d="m 229.62783,-8.258711 c -1.33764,0.087381 -2.70313,0.1771268 -4.28465,0.2888481 -2.00848,0.1418771 -4.20025,0.3037304 -6.54152,0.486951 -2.34127,0.1832205 -4.83228,0.388069 -7.43861,0.6149801 -1.30316,0.11346 -2.63503,0.2323095 -3.99176,0.357131 -1.35673,0.1248216 -2.73817,0.2552413 -4.14,0.3917201 -1.40182,0.1364787 -2.82418,0.2792251 -4.26263,0.4276566 -1.43846,0.1484315 -2.89306,0.3029132 -4.35967,0.4635931 -1.46662,0.1606798 -2.94523,0.3272099 -4.43155,0.5004249 -1.48631,0.1732237 -2.98027,0.3530106 -4.47781,0.539065 -1.49755,0.1860544 -2.99861,0.3785155 -4.49892,0.5776963 -1.50031,0.1991807 -2.99983,0.4050724 -4.49444,0.6176749 -1.49461,0.2126026 -2.98435,0.4317945 -4.46478,0.6581058 -1.48044,0.2263113 -2.95173,0.4595595 -4.40954,0.6998838 -1.4578,0.2403243 -2.90197,0.4879333 -4.32867,0.74255742 -1.4267,0.25462413 -2.83597,0.51646339 -4.2231,0.78568292 -0.69357,0.13460977 -1.38163,0.27092335 -2.06372,0.4092363 -0.6821,0.13832165 -1.35823,0.27841664 -2.02778,0.42047624 -0.66955,0.1420509 -1.33229,0.28630982 -1.98824,0.43214212 -0.65595,0.1458323 -1.30516,0.2932815 -1.94646,0.44293 -0.6413,0.1496485 -1.27506,0.3015572 -1.90065,0.4550567 -0.62558,0.1535081 -1.24286,0.3089027 -1.85168,0.4662966 -0.60881,0.1573852 -1.20903,0.3166567 -1.80002,0.4779624 -0.59098,0.1613144 -1.17267,0.3243761 -1.74476,0.4896545 -0.5721,0.1652697 -1.13467,0.3325039 -1.68682,0.5017723 -0.55215,0.1692685 -1.09413,0.3406058 -1.62527,0.5139077 -0.53115,0.1733019 -1.0515,0.3486641 -1.56059,0.5260343 -0.41348,0.1440677 -0.81414,0.2903172 -1.21244,0.4370884 a 52.70622,52.70622 0 0 0 15.51467,13.9100614 c 1.37452,-0.07354 2.71361,-0.143503 4.21188,-0.229102 2.28145,-0.130333 4.69362,-0.274522 7.19738,-0.433498 2.50376,-0.158967 5.09914,-0.332634 7.74723,-0.521088 1.32405,-0.09423 2.66108,-0.192035 4.00658,-0.293794 1.34551,-0.10176 2.69922,-0.2073 4.05645,-0.316692 1.35722,-0.1094 2.71792,-0.222921 4.0771,-0.340067 1.35919,-0.117137 2.71718,-0.237968 4.06858,-0.362964 1.3514,-0.124995 2.69608,-0.254276 4.02994,-0.387225 1.33387,-0.132959 2.65688,-0.269568 3.96346,-0.410593 1.30658,-0.141016 2.59688,-0.286092 3.86642,-0.435289 1.26955,-0.149196 2.51833,-0.302531 3.7411,-0.460003 1.22277,-0.157472 2.41942,-0.31929 3.58567,-0.485151 1.16624,-0.165861 2.30197,-0.335964 3.40192,-0.510318 1.09997,-0.174353 2.16417,-0.352958 3.18811,-0.535918 0.051,-0.0091 0.0992,-0.01869 0.15004,-0.02782 a 52.70622,52.70622 0 0 0 14.94955,-21.8850363 z" />
      <rect
         style="display:inline;fill:#b3b3b3;fill-opacity:1;fill-rule:nonzero;stroke:none;stroke-width:1.57909;stroke-linecap:round;stroke-linejoin:round;stroke-miterlimit:4;stroke-dasharray:none;stroke-opacity:1;paint-order:stroke fill markers"
         id="rect52286"
         width="13.817874"
         height="7.3070803"
         x="172.43845"
         y="-63.053936" />
      <path
         style="display:inline;fill:#ffffff;fill-opacity:1;stroke:#000000;stroke-width:0.869291;stroke-linecap:round;stroke-linejoin:round;stroke-miterlimit:4;stroke-dasharray:none;stroke-opacity:1"
         d="m 179.14649,-47.61154 -15.78065,2.475411 -2.77962,49.0428899 18.8697,4.5649272 z"
         id="path44488" />
      <path
         style="display:inline;fill:#000000;stroke:#000000;stroke-width:0.608504;stroke-linecap:butt;stroke-linejoin:miter;stroke-miterlimit:4;stroke-dasharray:none;stroke-opacity:1"
         d="m 172.79778,-43.011354 -3.97935,0.505962 -0.13675,5.169059 4.06043,-0.472947 z"
         id="path44702"
         sodipodi:nodetypes="ccccc" />
      <path
         style="display:inline;fill:#000000;stroke:#000000;stroke-width:0.434646;stroke-linecap:round;stroke-linejoin:round;stroke-miterlimit:4;stroke-dasharray:none;stroke-opacity:1"
         d="m 179.6065,-47.61154 0.0374,-4.712356 -19.54998,3.446039 c 0,0 4.62935,1.958821 3.27191,3.741728"
         id="path45430"
         sodipodi:nodetypes="cccc" />
      <path
         style="display:inline;fill:#ffffff;fill-opacity:1;stroke:#000000;stroke-width:0.869291;stroke-linecap:round;stroke-linejoin:round;stroke-miterlimit:4;stroke-dasharray:none;stroke-opacity:1"
         d="m 179.76534,-47.61154 15.78066,2.475411 2.77962,49.0428899 -18.8697,4.5649272 z"
         id="path44488-0" />
      <path
         style="display:inline;fill:#000000;stroke:#000000;stroke-width:0.608504;stroke-linecap:butt;stroke-linejoin:miter;stroke-miterlimit:4;stroke-dasharray:none;stroke-opacity:1"
         d="m 187.04394,-31.524556 2.55718,0.17777 0.30085,8.7792 -2.68026,-0.05468 z"
         id="path44702-7"
         sodipodi:nodetypes="ccccc" />
      <path
         style="display:inline;fill:#000000;stroke:#000000;stroke-width:0.434646;stroke-linecap:round;stroke-linejoin:round;stroke-miterlimit:4;stroke-dasharray:none;stroke-opacity:1"
         d="m 179.30534,-47.61154 -0.0374,-4.712356 19.54997,3.446039 c 0,0 -4.62935,1.958821 -3.27191,3.741728"
         id="path45430-2"
         sodipodi:nodetypes="cccc" />
      <path
         style="display:inline;fill:#000000;stroke:#000000;stroke-width:0.23px;stroke-linecap:butt;stroke-linejoin:miter;stroke-opacity:1"
         d="m 172.34651,-50.573528 v -5.251109 h 14.16706 v 5.688703 z"
         id="path46219" />
      <path
         style="display:inline;fill:#000000;fill-opacity:1;stroke:#000000;stroke-width:0.23px;stroke-linecap:butt;stroke-linejoin:miter;stroke-opacity:1"
         d="m 172.34651,-55.824637 c 0,0 6.14004,-1.806511 14.16706,0 0.52951,0.119167 -14.16706,0 -14.16706,0 v 0"
         id="path46437"
         sodipodi:nodetypes="cscc" />
      <circle
         style="display:inline;fill:#000000;fill-opacity:1;stroke:none;stroke-width:0.71164;stroke-linecap:round;stroke-linejoin:round;stroke-miterlimit:4;stroke-dasharray:none;stroke-opacity:1;paint-order:stroke fill markers"
         id="path48683"
         cx="179.3685"
         cy="-68.84301"
         r="0.94355869" />
      <path
         id="path49242"
         style="display:inline;fill:#000000;fill-opacity:1;stroke:#000000;stroke-width:0.23px;stroke-linecap:butt;stroke-linejoin:miter;stroke-opacity:1"
         d="m 178.41129,-67.407161 0.35555,-0.123065 0.0136,-0.560667 h 1.17603 l 0.0136,0.560667 0.35555,0.123065 0.0274,0.957235 6.20834,3.67851 c 0,0 0.38288,0.328194 0.0547,1.258079 -7.49376,-3.227245 -14.49524,0 -14.49524,0 -0.3282,-0.929885 0.0547,-1.258079 0.0547,-1.258079 l 6.20835,-3.67851 z"
         sodipodi:nodetypes="ccccccccccccc" />
      <path
         style="display:inline;fill:none;stroke:#000000;stroke-width:0.23px;stroke-linecap:butt;stroke-linejoin:miter;stroke-opacity:1"
         d="m 186.2826,-61.806399 v 6.285187"
         id="path49923" />
      <path
         style="display:inline;fill:none;stroke:#000000;stroke-width:0.23px;stroke-linecap:butt;stroke-linejoin:miter;stroke-opacity:1"
         d="m 172.47642,-61.649824 v 6.285187"
         id="path49923-4" />
      <path
         style="display:inline;fill:none;stroke:#000000;stroke-width:0.23px;stroke-linecap:butt;stroke-linejoin:miter;stroke-opacity:1"
         d="m 186.33047,-61.806399 v 6.285187"
         id="path49923-6" />
      <path
         style="display:inline;fill:none;stroke:#000000;stroke-width:0.23px;stroke-linecap:butt;stroke-linejoin:miter;stroke-opacity:1"
         d="m 179.33432,-62.882003 v 6.285187"
         id="path49923-3" />
      <path
         style="display:inline;fill:none;stroke:#000000;stroke-width:0.23px;stroke-linecap:butt;stroke-linejoin:miter;stroke-opacity:1"
         d="m 175.49171,-62.577366 v 6.285187"
         id="path49923-30" />
      <path
         style="display:inline;fill:none;stroke:#000000;stroke-width:0.23px;stroke-linecap:butt;stroke-linejoin:miter;stroke-opacity:1"
         d="m 183.28634,-62.654473 v 6.285187"
         id="path49923-48" />
    </g>
  </g>
</svg>
