<?xml version="1.0" encoding="UTF-8" standalone="no"?>
<svg
   width="0.46843928in"
   zoomAndPan="magnify"
   viewBox="0 0 33.727629 60.140625"
   height="0.83528644in"
   preserveAspectRatio="xMidYMid"
   version="1.0"
   id="svg63"
   sodipodi:docname="hub side rays for website banner.svg"
   inkscape:version="1.3 (0e150ed, 2023-07-21)"
   inkscape:export-filename="islesboro_energy_hub.jpg"
   inkscape:export-xdpi="130.90909"
   inkscape:export-ydpi="130.90909"
   xmlns:inkscape="http://www.inkscape.org/namespaces/inkscape"
   xmlns:sodipodi="http://sodipodi.sourceforge.net/DTD/sodipodi-0.dtd"
   xmlns="http://www.w3.org/2000/svg"
   xmlns:svg="http://www.w3.org/2000/svg">
  <sodipodi:namedview
     id="namedview63"
     pagecolor="#46add9"
     bordercolor="#666666"
     borderopacity="1.0"
     inkscape:showpageshadow="2"
     inkscape:pageopacity="0.0"
     inkscape:pagecheckerboard="0"
     inkscape:deskcolor="#d1d1d1"
     inkscape:zoom="2.9972842"
     inkscape:cx="104.09423"
     inkscape:cy="124.61281"
     inkscape:window-width="1344"
     inkscape:window-height="812"
     inkscape:window-x="1"
     inkscape:window-y="0"
     inkscape:window-maximized="0"
     inkscape:current-layer="svg63"
     inkscape:export-bgcolor="#ffffff00"
     inkscape:document-units="in" />
  <defs
     id="defs3" />
  <path
     id="path82-4-2-4-2-23-4-7-8-5-1-5"
     style="fill:#f5b840;fill-opacity:1;stroke:none;stroke-width:1.04003;stroke-linecap:round;stroke-linejoin:round;stroke-dasharray:none;paint-order:stroke fill markers"
     d="M 1.4838824,44.676271 A 48.721401,48.721401 0 0 1 2.3706055e-6,48.654787 L 27.729492,60.140627 a 78.682534,78.682534 0 0 0 1.25244,-3.19629 78.682534,78.682534 0 0 0 1.09571,-3.25342 z"
     inkscape:export-filename="./side_rays_r.svg"
     inkscape:export-xdpi="130.90909"
     inkscape:export-ydpi="130.90909" />
  <path
     id="path81-9-9-5-2-5-8-0-9-4-1-7"
     style="fill:#f5b840;fill-opacity:1;stroke:none;stroke-width:1.04003;stroke-linecap:round;stroke-linejoin:round;stroke-dasharray:none;paint-order:stroke fill markers"
     d="m 3.3442424,36.39258 a 48.721401,48.721401 0 0 1 -0.82178,4.16748 l 29.3203096,6.499512 a 78.682534,78.682534 0 0 0 0.28858,-1.255371 78.682534,78.682534 0 0 0 0.68115,-3.80127 78.682534,78.682534 0 0 0 0.21973,-1.702148 z" />
  <path
     id="path80-0-2-2-1-1-8-5-7-0-04-3"
     style="fill:#f5b840;fill-opacity:1;stroke:none;stroke-width:1.04003;stroke-linecap:round;stroke-linejoin:round;stroke-dasharray:none;paint-order:stroke fill markers"
     d="M 33.651862,26.601563 3.7470724,27.906739 a 48.721401,48.721401 0 0 1 0.0527,2.128418 48.721401,48.721401 0 0 1 -0.15234,2.119629 l 29.9883096,1.309571 a 78.682534,78.682534 0 0 0 0.0908,-3 78.682534,78.682534 0 0 0 -0.0747,-3.862794 z" />
  <path
     id="path79-20-8-3-1-3-3-6-5-6-9-6"
     style="fill:#f5b840;fill-opacity:1;stroke:none;stroke-width:1.04003;stroke-linecap:round;stroke-linejoin:round;stroke-dasharray:none;paint-order:stroke fill markers"
     d="M 31.728522,13.035645 2.6293924,19.486817 a 48.721401,48.721401 0 0 1 0.73975,4.185059 L 32.865232,19.788575 a 78.682534,78.682534 0 0 0 -0.50097,-4.338868 78.682534,78.682534 0 0 0 -0.63574,-2.414062 z" />
  <path
     id="path78-38-9-0-1-8-5-3-3-0-0-32"
     style="fill:#f5b840;fill-opacity:1;stroke:none;stroke-width:1.04003;stroke-linecap:round;stroke-linejoin:round;stroke-dasharray:none;paint-order:stroke fill markers"
     d="M 27.555182,-8.7719727e-7 0.08642237,11.377441 A 48.721401,48.721401 0 0 1 1.5307624,15.376465 L 29.979492,6.4072261 A 78.682534,78.682534 0 0 0 29.501952,4.5952141 78.682534,78.682534 0 0 0 27.555182,-8.7719727e-7 Z" />
</svg>
