<?xml version="1.0" encoding="UTF-8" standalone="no"?>
<svg
   width="0.46831715in"
   zoomAndPan="magnify"
   viewBox="0 0 33.718836 60.128909"
   height="0.83512372in"
   preserveAspectRatio="xMidYMid"
   version="1.0"
   id="svg63"
   sodipodi:docname="hub side rays for website banner.svg"
   inkscape:version="1.3 (0e150ed, 2023-07-21)"
   inkscape:export-filename="islesboro_energy_hub.jpg"
   inkscape:export-xdpi="130.90909"
   inkscape:export-ydpi="130.90909"
   xmlns:inkscape="http://www.inkscape.org/namespaces/inkscape"
   xmlns:sodipodi="http://sodipodi.sourceforge.net/DTD/sodipodi-0.dtd"
   xmlns="http://www.w3.org/2000/svg"
   xmlns:svg="http://www.w3.org/2000/svg">
  <sodipodi:namedview
     id="namedview63"
     pagecolor="#46add9"
     bordercolor="#666666"
     borderopacity="1.0"
     inkscape:showpageshadow="2"
     inkscape:pageopacity="0.0"
     inkscape:pagecheckerboard="0"
     inkscape:deskcolor="#d1d1d1"
     inkscape:zoom="2.9972842"
     inkscape:cx="104.09423"
     inkscape:cy="124.61281"
     inkscape:window-width="1344"
     inkscape:window-height="812"
     inkscape:window-x="1"
     inkscape:window-y="0"
     inkscape:window-maximized="0"
     inkscape:current-layer="svg63"
     inkscape:export-bgcolor="#ffffff00"
     inkscape:document-units="in" />
  <defs
     id="defs3" />
  <path
     id="path96-0-0-9-3-5-6-2-3-6-0-2"
     style="fill:#f5b840;fill-opacity:1;stroke:none;stroke-width:1.04003;stroke-linecap:round;stroke-linejoin:round;stroke-dasharray:none;paint-order:stroke fill markers"
     d="M 32.237881,44.718752 3.6836791,53.721686 a 78.682534,78.682534 0 0 0 0.4775391,1.81201 78.682534,78.682534 0 0 0 1.9467774,4.59521 l 27.6108424,-11.4375 a 48.721401,48.721401 0 0 1 -1.480957,-3.972654 z" />
  <path
     id="path100-02-9-8-9-2-5-9-0-2-1-1"
     style="fill:#f5b840;fill-opacity:1;stroke:none;stroke-width:1.04003;stroke-linecap:round;stroke-linejoin:round;stroke-dasharray:none;paint-order:stroke fill markers"
     d="M 5.9629761,-2.8344726e-7 A 78.682534,78.682534 0 0 0 5.6875855,0.56103472 78.682534,78.682534 0 0 0 3.7657103,6.4936517 L 32.237881,15.470215 a 48.721401,48.721401 0 0 1 1.480957,-3.972656 z" />
  <path
     id="path99-3-1-9-9-0-5-4-4-5-9-3"
     style="fill:#f5b840;fill-opacity:1;stroke:none;stroke-width:1.04003;stroke-linecap:round;stroke-linejoin:round;stroke-dasharray:none;paint-order:stroke fill markers"
     d="m 1.9082883,13.088379 a 78.682534,78.682534 0 0 0 -1.163086,6.754395 l 29.6381857,3.902344 a 48.721401,48.721401 0 0 1 0.818848,-4.161621 z" />
  <path
     id="path98-5-8-9-8-1-4-3-4-6-3-6"
     style="fill:#f5b840;fill-opacity:1;stroke:none;stroke-width:1.04003;stroke-linecap:round;stroke-linejoin:round;stroke-dasharray:none;paint-order:stroke fill markers"
     d="m 0.2002804,26.670411 a 78.682534,78.682534 0 0 0 -0.1904297,6.85547 L 30.080166,32.21338 a 48.721401,48.721401 0 0 1 -0.150879,-2.118164 48.721401,48.721401 0 0 1 0.150879,-2.119629 z" />
  <path
     id="path97-9-4-7-0-0-1-9-5-3-9-5"
     style="fill:#f5b840;fill-opacity:1;stroke:none;stroke-width:1.04003;stroke-linecap:round;stroke-linejoin:round;stroke-dasharray:none;paint-order:stroke fill markers"
     d="m 30.383388,36.445314 -29.5854513,3.89502 a 78.682534,78.682534 0 0 0 0.5009766,4.338868 78.682534,78.682534 0 0 0 0.6357422,2.415527 L 31.203701,40.606936 a 48.721401,48.721401 0 0 1 -0.820313,-4.161622 z" />
</svg>
